<?xml version="1.0" encoding="UTF-8"?>
<svg width="38px" height="60px" viewBox="0 0 38 60" version="1.1" xmlns="http://www.w3.org/2000/svg" xmlns:xlink="http://www.w3.org/1999/xlink">
    <!-- Generator: Sketch 58 (84663) - https://sketch.com -->
    <title>Artboard Copy 2</title>
    <desc>Created with Sketch.</desc>
    <defs>
        <path d="M23,32.9997782 L29,32.9997782 C33.9682782,32.994267 37.9944889,28.9680563 38,23.9997782 L38,20.9997782 L31,20.9997782 C26.0317218,21.0052893 22.0055111,25.0315 22,29.9997782 L22,31.0997782 C21.2607864,31.2343851 20.5705895,31.5629189 20,32.0517782 L20,17.9627782 C24.463,17.6437782 27,15.1477782 27,10.9997782 C27,6.15577816 19.925,0.457778164 19.623,0.217778164 C19.2584182,-0.0725927215 18.7415818,-0.0725927215 18.377,0.217778164 C18.075,0.457778164 11,6.15577816 11,10.9997782 C11,15.1477782 13.537,17.6437782 18,17.9627782 L18,29.0547782 C17.4294105,28.5659189 16.7392136,28.2373851 16,28.1027782 L16,26.9997782 C15.9944889,22.0315 11.9682782,18.0052893 7,17.9997782 L0,17.9997782 L0,20.9997782 C0.00551112896,25.9680563 4.03172183,29.994267 9,29.9997782 L15,29.9997782 C17.943,29.9997782 18,33.8387782 18,33.9997782 L18,41.9997782 L5,41.9997782 C4.44771525,41.9997782 4,42.4474934 4,42.9997782 L4,46.9997782 C4,47.5520629 4.44771525,47.9997782 5,47.9997782 L6.153,47.9997782 L8.014,59.1647782 C8.09460211,59.6465804 8.51150225,59.9997782 9,59.9997782 L29,59.9997782 C29.4884978,59.9997782 29.9053979,59.6465804 29.986,59.1647782 L31.847,47.9997782 L33,47.9997782 C33.5522847,47.9997782 34,47.5520629 34,46.9997782 L34,42.9997782 C34,42.4474934 33.5522847,41.9997782 33,41.9997782 L20,41.9997782 L20,36.9997782 C20,36.8367782 20.034,32.9997782 23,32.9997782 Z M31,22.9997782 L36,22.9997782 L36,23.9997782 C35.9955914,27.8639438 32.8641657,30.9953695 29,30.9997782 L26.3,30.9997782 L32.552,26.8317782 L31.442,25.1677782 L24,30.1317782 L24,29.9997782 C24.0044086,26.1356125 27.1358343,23.0041868 31,22.9997782 L31,22.9997782 Z M2,20.9997782 L2,19.9997782 L7,19.9997782 C10.8641657,20.0041868 13.9955914,23.1356125 14,26.9997782 L14,27.1317782 L6.555,22.1677782 L5.445,23.8317782 L11.7,27.9997782 L9,27.9997782 C5.13583434,27.9953695 2.00440864,24.8639438 2,20.9997782 L2,20.9997782 Z M28.153,57.9997782 L9.847,57.9997782 L8.181,47.9997782 L29.819,47.9997782 L28.153,57.9997782 Z M32,45.9997782 L6,45.9997782 L6,43.9997782 L32,43.9997782 L32,45.9997782 Z M13,10.9997782 C13,8.09977816 16.885,4.13277816 19,2.29977816 C21.115,4.13077816 25,8.09277816 25,10.9997782 C25,14.0217782 23.307,15.6707782 20,15.9437782 L20,13.4137782 L22.707,10.7067782 L21.293,9.29277816 L20,10.5857782 L20,5.99977816 L18,5.99977816 L18,8.13177816 L16.555,7.16777816 L15.445,8.83177816 L18,10.5347782 L18,15.9437782 C14.693,15.6707782 13,14.0217782 13,10.9997782 Z" id="path-1"></path>
    </defs>
    <g id="Artboard-Copy-2" stroke="none" stroke-width="1" fill="none" fill-rule="evenodd">
        <g id="Group">
            <polygon id="Path" fill="#8c6c51" fill-rule="nonzero" points="19 56 19 54 12.819 54 11.98 49.804 10.02 50.196 11.181 56"></polygon>
            <rect id="Rectangle" fill="#8c6c51" fill-rule="nonzero" x="21" y="54" width="2" height="2"></rect>
            <g id="Rectangle" transform="translate(0.000000, 0.000222)">
                <mask id="mask-2" fill="white">
                    <use xlink:href="#path-1"></use>
                </mask>
                <use id="Mask" fill="#000000" fill-rule="nonzero" xlink:href="#path-1"></use>
                <rect fill="#39291B" mask="url(#mask-2)" x="2" y="41.9997782" width="34" height="18"></rect>
                <rect fill="#4a632c" mask="url(#mask-2)" x="2" y="-0.000221835543" width="34" height="18"></rect>
                <rect fill="#4a632c" mask="url(#mask-2)" x="-18" y="14.9997782" width="34" height="18"></rect>
                <rect fill="#4a632c" mask="url(#mask-2)" x="22" y="19.9997782" width="34" height="18"></rect>
                <rect fill="#8c6c51" mask="url(#mask-2)" x="16" y="17.9997782" width="6" height="24"></rect>
            </g>
            <rect id="Rectangle" fill="#bd0007" fill-rule="nonzero" x="5" y="11" width="2" height="2"></rect>
            <rect id="Rectangle" fill="#bd0007" fill-rule="nonzero" x="28" y="16" width="2" height="2"></rect>
            <rect id="Rectangle" fill="#bd0007" fill-rule="nonzero" x="12" y="33" width="2" height="2"></rect>
        </g>
    </g>
</svg>